<svg xmlns="http://www.w3.org/2000/svg" xmlns:xlink="http://www.w3.org/1999/xlink" width="136" height="48" viewBox="0 0 136 48">
    <g fill="#fff" fill-rule="evenodd">
        <path d="M34.018 12.876c-4.996.005-9.038 5.757-9.035 12.856 0 7.093 4.053 12.845 9.056 12.84 4.995-.002 9.04-5.756 9.034-12.851-.005-7.095-4.053-12.845-9.05-12.845h-.005zm-2.614 12.85c-.004-5.12 1.167-9.273 2.62-9.273 1.447-.003 2.623 4.15 2.63 9.271.002 5.121-1.17 9.273-2.62 9.275-1.449-.002-2.625-4.149-2.63-9.273z"/>
        <path d="M10.696 5.516s1.39 1.694.272 4.293c-1.472 3.61-5.634 15.108-7.02 25.783-.023.195-.042.379-.06.559-1.41.335-2.556.726-3.282 1.156L2.513 47.4l2.995-.004c.55-2.768 1.156-6.653 2.01-6.688 3.851-.748 8.95-.622 12.235-.007 1.242.356 1.657 4.115 2.228 6.686l3.428-.003c.545-2.772 1.244-6.36 1.65-8.549-.586-.714-1.42-1.303-2.424-1.79-4.993-12.406-4.341-25.755-1.872-31.537l-12.067.009zm4.308 5.748s-1.86 11.503 1.368 23.973a48.546 48.546 0 0 0-6.99.087c.713-13.48 5.622-24.06 5.622-24.06zM104.104 12.833h-1.82l.01 20.176c.005 3.843.005 5.055 4.04 5.05h2.322l-.015-19.805c-.004-4.469-1.383-5.42-4.522-5.42h-.015zM72.96 12.802c-4.993.003-9.046 5.846-9.034 13.062 0 .91.016 1.85.047 2.786l.014 19.114 1.052-.008c3.662-.001 5.41-2.027 5.295-7.754l-.003-2.41c7.42-1.297 11.69-6.668 11.686-11.742-.003-7.207-4.051-13.048-9.05-13.048h-.006zm-2.635 13.885v-.002c.01-.28.021-2.357.021-2.623-.001-5.205 1.17-7.279 2.62-7.279 1.448-.002 2.629 2.07 2.629 7.275.003 3.938-1.714 9.211-5.264 10.48l-.006-7.85zM60.53 1.12c-1.858 1.365-4.372 1.761-6.75 2.532-2.226.716-4.535 1.858-5.985 3.407-2.642 2.844-3.33 7.031-3.254 12.193.032 1.921-.201 4.335.056 6.977.195 6.857 4.16 12.334 9.039 12.33 4.998-.001 9.042-5.757 9.039-12.85-.007-7.098-4.057-12.846-9.058-12.844-2.138.002-4.103 1.061-5.65 2.826.288-3.76 1.192-5.487 3.643-6.769 1.744-.913 3.628-.872 5.387-.828 2.513.06 4.777.12 6.039-2.612C64.352 2.62 61.616.02 61.616.02c-.368.395-.667.793-1.086 1.1zm-9.47 24.596c-.003-5.12 1.17-9.277 2.622-9.277s2.63 4.15 2.63 9.273c.005 5.12-1.167 9.275-2.616 9.277h-.002c-1.451 0-2.632-4.155-2.634-9.273zM83.622 19.726v.878l.007 13.062c0 3.199 1.145 4.41 3.92 4.405h.514c.01 0 .026-.004.042-.002l5.183-.005c1.647 0 8.043-.173 8.038-6.579.216-7.303-5.507-7.56-9.983-10.188-.517-.393-1.362-.559-1.36-1.885-.002-.004-.003-.005-.003-.009l-.014-.032c-.161-4.785-1.907-6.522-5.292-6.518l-1.057-.01.005 6.883zm6.361 11.255l-.003-7.508c.497.365.506.374 1.547 1.14 1.05.773 3.46 3.132 3.46 6.475.004 3.342-1.81 3.716-2.549 3.717h-.001c-.998 0-2.405-1.234-2.454-3.824zM123.096 12.82l.003 3.783c-.257 1.08-1.186 2.716-3.294 5.107-1.439 1.638-2.317 2.644-2.829 3.334l-.008-8.29c0-2.926-1.555-3.93-3.792-3.926h-2.564l.01 20.015c.004 3.719.465 5.212 4.308 5.21l2.052.002-.002-6.18c.512-.965 1.377-2.192 2.727-3.73 2.24-2.547 3.124-3.567 3.4-4.224l.004 10.585c0 2.101 1.267 3.544 3.45 3.542l2.906-.002-.014-20.351c-.002-4.038-1.226-4.878-4.162-4.878l-2.195.004zM120.346 4.287c-.864-1.942-4.167-.455-3.46 2.163.634 2.367 1.859 4.32 2.004 5.837 1.92-.424 4.435-2.368 5.168-5.735.315-1.44-.477-2.867-1.334-3.136a2.127 2.127 0 0 0-.492-.059c-1.127 0-1.886.93-1.886.93z"/>
        <path d="M132.262 5.272a3.176 3.176 0 0 0-1.25.247 3.327 3.327 0 0 0-1.017.67c-.284.284-.514.62-.682 1.007a3.1 3.1 0 0 0-.25 1.256c0 .447.08.869.247 1.262.166.395.392.739.669 1.03.286.287.624.515 1.018.682.387.164.803.247 1.24.245.45.002.87-.08 1.255-.243a3.077 3.077 0 0 0 1.001-.684c.282-.288.501-.631.666-1.025.163-.395.242-.816.243-1.264a3.35 3.35 0 0 0-.241-1.255 3.085 3.085 0 0 0-.665-1.007 3.265 3.265 0 0 0-.991-.674 3.116 3.116 0 0 0-1.23-.247h-.013zm-1.006 5.62a2.358 2.358 0 0 1-.788-.564 2.686 2.686 0 0 1-.52-.84 2.747 2.747 0 0 1-.193-1.036c-.004-.357.06-.695.184-1.018.12-.324.294-.601.522-.84.224-.234.487-.42.79-.562.302-.139.624-.206.973-.206.357 0 .688.069.99.208.301.14.564.328.788.564.228.238.402.515.52.84.125.322.185.668.185 1.036 0 .367-.06.715-.186 1.037-.12.323-.29.602-.508.838-.221.238-.482.423-.783.553-.302.13-.628.198-.971.198-.36 0-.694-.069-1.003-.208zm.347-4.086c-.175.018-.359.041-.534.066l-.002 3.338h.615v-1.4h.384c.235 0 .405.044.524.126a.652.652 0 0 1 .228.406c.103.487.19.78.27.868l.63.001a2.423 2.423 0 0 1-.112-.266 4.244 4.244 0 0 1-.135-.564c-.087-.434-.268-.704-.538-.81v-.037c.184-.068.33-.162.454-.289a.702.702 0 0 0 .184-.502c.002-.316-.11-.554-.326-.71-.1-.08-.236-.144-.389-.191a2.307 2.307 0 0 0-.632-.067c-.235 0-.437.01-.62.031zm.08.482c.052-.014.113-.021.181-.028.07-.007.167-.011.28-.011.297 0 .502.051.618.159a.502.502 0 0 1 .171.395c0 .197-.085.335-.259.414-.173.08-.366.116-.587.116h-.405V7.288z"/>
    </g>
</svg>
